{
	"asset":{
		"generator":"Khronos glTF Blender I/O v5.0.21",
		"version":"2.0"
	},
	"extensionsUsed":[
		"KHR_lights_punctual",
		"KHR_materials_clearcoat",
		"KHR_materials_specular",
		"KHR_materials_ior"
	],
	"extensionsRequired":[
		"KHR_lights_punctual"
	],
	"extensions":{
		"KHR_lights_punctual":{
			"lights":[
				{
					"color":[
						1,
						1,
						1
					],
					"intensity":120442.7313539951,
					"spot":{
						"innerConeAngle":0.2707720499124804,
						"outerConeAngle":0.3185553550720215
					},
					"type":"spot",
					"name":"Spot.001"
				}
			]
		}
	},
	"scene":0,
	"scenes":[
		{
			"extras":{
				"geocables_message":"\\\\nCustom Link:",
				"geocables_link":"",
				"HG3D":{
					"subscribed":1,
					"pcoll":{
						"humans":0
					},
					"load_exception":0,
					"previews_list_humans":[
						"models\\male\\Asian\\Ben.json",
						"models\\male\\Asian\\Liam.json",
						"models\\male\\Asian\\Max.json",
						"models\\male\\Asian\\Michael.json",
						"models\\male\\Asian\\Terrence.json",
						"models\\male\\Asian presets\\Asian 1.json",
						"models\\male\\Asian presets\\Asian 2.json",
						"models\\male\\Asian presets\\Asian 3.json",
						"models\\male\\Asian presets\\Asian 4.json",
						"models\\male\\Asian presets\\Asian 5.json",
						"models\\male\\Asian presets\\Asian 6.json",
						"models\\male\\Asian presets\\Asian 7.json",
						"models\\male\\Black\\Dan.json",
						"models\\male\\Black\\Hugo.json",
						"models\\male\\Black\\Kent.json",
						"models\\male\\Black\\Mortimer.json",
						"models\\male\\Black\\Noah.json",
						"models\\male\\Black\\Remy.json",
						"models\\male\\Black presets\\Black 1.json",
						"models\\male\\Black presets\\Black 2.json",
						"models\\male\\Black presets\\Black 3.json",
						"models\\male\\Black presets\\Black 4.json",
						"models\\male\\Caucasian\\David.json",
						"models\\male\\Caucasian\\Jack.json",
						"models\\male\\Caucasian\\Jude.json",
						"models\\male\\Caucasian\\Julius.json",
						"models\\male\\Caucasian\\Nico.json",
						"models\\male\\Caucasian\\Otto.json",
						"models\\male\\Caucasian\\Owen.json",
						"models\\male\\Caucasian\\Peter.json",
						"models\\male\\Caucasian\\Rory.json",
						"models\\male\\Caucasian\\Theo.json",
						"models\\male\\Caucasian Presets\\Caucasian 1.json",
						"models\\male\\Caucasian Presets\\Caucasian 2.json",
						"models\\male\\Caucasian Presets\\Caucasian 3.json",
						"models\\male\\Caucasian Presets\\Caucasian 4.json",
						"models\\male\\Hispanic\\Enzo.json",
						"models\\male\\Hispanic\\John.json",
						"models\\male\\Hispanic\\Luke.json",
						"models\\male\\Middle Eastern\\Cole.json",
						"models\\male\\Middle Eastern\\George.json",
						"models\\male\\Middle Eastern\\Theodore.json"
					],
					"custom_content":{},
					"ui":{}
				},
				"contentpacks_col":[
					{
						"name":"header"
					},
					{
						"name":"8K Textures",
						"pack_name":"8K Textures",
						"creator":"HumGen",
						"weblink":"https://www.humgen3d.com",
						"description":null,
						"icon_name":null,
						"pack_version":[
							4,
							0
						],
						"json_path":"G:\\Documents\\Blender\\humans\\\\content_packs\\8K_Textures.json",
						"humans":false,
						"human_textures":true,
						"shapekeys":false,
						"hair":false,
						"poses":false,
						"clothes":false,
						"footwear":false,
						"expressions":false
					},
					{
						"name":"Base Clothes",
						"pack_name":"Base Clothes",
						"creator":"HumGen",
						"weblink":"https://www.humgen3d.com",
						"description":null,
						"icon_name":null,
						"pack_version":[
							4,
							1
						],
						"json_path":"G:\\Documents\\Blender\\humans\\\\content_packs\\Base_Clothes.json",
						"humans":false,
						"human_textures":false,
						"shapekeys":false,
						"hair":false,
						"poses":false,
						"clothes":false,
						"footwear":true,
						"expressions":false
					},
					{
						"name":"Base Hair",
						"pack_name":"Base Hair",
						"creator":"HumGen",
						"weblink":"https://www.humgen3d.com",
						"description":null,
						"icon_name":null,
						"pack_version":[
							4,
							1
						],
						"json_path":"G:\\Documents\\Blender\\humans\\\\content_packs\\Base_Hair.json",
						"humans":false,
						"human_textures":false,
						"shapekeys":false,
						"hair":true,
						"poses":false,
						"clothes":false,
						"footwear":false,
						"expressions":false
					},
					{
						"name":"Base Humans",
						"pack_name":"Base Humans",
						"creator":"HumGen",
						"weblink":"https://www.humgen3d.com",
						"description":null,
						"icon_name":null,
						"pack_version":[
							4,
							1
						],
						"json_path":"G:\\Documents\\Blender\\humans\\\\content_packs\\Base_Humans.json",
						"humans":true,
						"human_textures":true,
						"shapekeys":true,
						"hair":false,
						"poses":false,
						"clothes":false,
						"footwear":false,
						"expressions":true
					},
					{
						"name":"DPL_HGV4_Collection",
						"pack_name":"DPL_HGV4_Collection",
						"creator":"DeVoide Ent",
						"weblink":"https://devoide.gumroad.com",
						"description":null,
						"icon_name":null,
						"pack_version":[
							6,
							1
						],
						"json_path":"G:\\Documents\\Blender\\humans\\\\content_packs\\DPL_HGV4_Collection.json",
						"humans":false,
						"human_textures":false,
						"shapekeys":false,
						"hair":false,
						"poses":false,
						"clothes":false,
						"footwear":false,
						"expressions":false
					}
				],
				"assets used":{},
				"uuid":"bef6468d-849f-4553-b5a6-109b2a6f7575",
				"assets reported":{},
				"trail_settings":{
					"cache_path":"//NiggersKartoshka777.cache"
				},
				"rtm_props":{
					"material_category":17
				},
				"jiggle_tree":{},
				"jiggle_rate":1.0
			},
			"name":"Scene",
			"nodes":[
				1,
				3,
				4,
				5,
				6,
				7,
				8,
				9,
				10,
				11,
				12,
				13,
				14,
				15,
				16,
				17,
				18,
				19,
				20,
				21,
				22,
				23,
				24,
				25,
				26,
				27,
				28,
				29,
				30,
				31,
				32,
				33,
				34,
				35,
				36,
				37,
				38,
				39,
				40,
				41,
				42,
				43,
				44,
				45,
				46,
				47,
				48,
				49,
				50,
				51,
				52,
				53,
				54,
				55,
				56,
				57
			]
		}
	],
	"nodes":[
		{
			"extras":{
				"name":"world",
				"HG":{},
				"als":{}
			},
			"name":"world"
		},
		{
			"children":[
				0
			],
			"extras":{
				"HG":{},
				"als":{}
			},
			"name":"Node_0",
			"scale":[
				0.5537666082382202,
				0.5537666082382202,
				0.5537666082382202
			],
			"translation":[
				0.0347934365272522,
				0.003431694582104683,
				0.009052153676748276
			]
		},
		{
			"extras":{
				"name":"world",
				"HG":{},
				"als":{}
			},
			"name":"world.001"
		},
		{
			"children":[
				2
			],
			"extras":{
				"HG":{},
				"als":{}
			},
			"name":"Node_0.001",
			"scale":[
				2.0287487506866455,
				2.0287487506866455,
				2.0287487506866455
			],
			"translation":[
				3.1691513061523438,
				0.9541909694671631,
				1.5968718528747559
			]
		},
		{
			"extras":{
				"HG":{}
			},
			"name":"Area.001",
			"rotation":[
				-0.7071068286895752,
				0,
				0,
				0.7071068286895752
			],
			"translation":[
				1.6817846298217773,
				4.06234884262085,
				-0.9359580278396606
			]
		},
		{
			"extensions":{
				"KHR_lights_punctual":{
					"light":0
				}
			},
			"extras":{
				"HG":{}
			},
			"name":"Spot",
			"rotation":[
				-0.5378594398498535,
				0.4553684890270233,
				-0.4561757743358612,
				0.5433695912361145
			],
			"translation":[
				8.93771743774414,
				2.5064334869384766,
				-3.746896266937256
			]
		},
		{
			"camera":0,
			"extras":{
				"HG":{},
				"als":{}
			},
			"name":"Camera",
			"rotation":[
				0.027508093044161797,
				0.7020863890647888,
				-0.027160493656992912,
				0.7110417485237122
			],
			"translation":[
				2.184169054031372,
				1.6832168102264404,
				-3.586312770843506
			]
		},
		{
			"extras":{
				"HG":{}
			},
			"mesh":0,
			"name":"Erkan",
			"rotation":[
				0,
				0,
				-0.7071068286895752,
				0.7071068286895752
			],
			"scale":[
				2.000661611557007,
				1.8830387592315674,
				1.913212776184082
			],
			"translation":[
				-7.696414470672607,
				2.4441986083984375,
				-3.720655918121338
			]
		},
		{
			"camera":1,
			"extras":{
				"HG":{},
				"als":{}
			},
			"name":"Camera.001",
			"rotation":[
				0.0003005086036864668,
				-0.9958934187889099,
				0.0033205682411789894,
				0.09047234058380127
			],
			"translation":[
				3.853442668914795,
				1.0901598930358887,
				-3.296273946762085
			]
		},
		{
			"extras":{
				"HG":{}
			},
			"name":"Slot00",
			"translation":[
				5.097300052642822,
				1.544600009918213,
				0.7495099902153015
			]
		},
		{
			"extras":{
				"HG":{}
			},
			"name":"Slot01",
			"translation":[
				4.827300071716309,
				1.544600009918213,
				0.7495099902153015
			]
		},
		{
			"extras":{
				"HG":{}
			},
			"name":"Slot02",
			"translation":[
				4.557300090789795,
				1.544600009918213,
				0.7495099902153015
			]
		},
		{
			"extras":{
				"HG":{}
			},
			"name":"Slot03",
			"translation":[
				4.287300109863281,
				1.544600009918213,
				0.7495099902153015
			]
		},
		{
			"extras":{
				"HG":{}
			},
			"name":"Slot04",
			"translation":[
				4.017300128936768,
				1.544600009918213,
				0.7495099902153015
			]
		},
		{
			"extras":{
				"HG":{}
			},
			"name":"Temp1",
			"translation":[
				4.557300090789795,
				1.544600009918213,
				-0.158807635307312
			]
		},
		{
			"extras":{
				"HG":{}
			},
			"name":"Temp2",
			"translation":[
				1.601576328277588,
				1.544600009918213,
				-2.2203242778778076
			]
		},
		{
			"extras":{
				"HG":{}
			},
			"name":"Temp3",
			"translation":[
				-3.3219127655029297,
				0.9273528456687927,
				-3.695413827896118
			]
		},
		{
			"extras":{
				"HG":{},
				"als":{},
				"trail":{
					"target_object":{}
				}
			},
			"mesh":1,
			"name":"Cube",
			"scale":[
				3.81034779548645,
				0.16444766521453857,
				0.4256685674190521
			],
			"translation":[
				1.6537482738494873,
				0.16009312868118286,
				0.8366666436195374
			]
		},
		{
			"extras":{
				"HG":{},
				"als":{},
				"trail":{
					"target_object":{}
				}
			},
			"mesh":2,
			"name":"Cylinder",
			"rotation":[
				0,
				1,
				0,
				0
			],
			"scale":[
				-0.9831804037094116,
				-0.07502548396587372,
				-1.1894314289093018
			],
			"translation":[
				-1.2828667163848877,
				0.05784665420651436,
				-3.6740212440490723
			]
		},
		{
			"extras":{
				"HG":{},
				"als":{},
				"trail":{
					"target_object":{}
				}
			},
			"mesh":3,
			"name":"Sphere",
			"scale":[
				0.6387442350387573,
				0.6387442350387573,
				0.6387442350387573
			],
			"translation":[
				-3.3330910205841064,
				-0.26138707995414734,
				-3.681288242340088
			]
		},
		{
			"extras":{
				"HG":{},
				"als":{},
				"trail":{
					"target_object":{}
				}
			},
			"mesh":4,
			"name":"Cube.020",
			"scale":[
				7.930525779724121,
				2.7018816471099854,
				5.7476701736450195
			],
			"translation":[
				0.009046018123626709,
				2.6900062561035156,
				-4.012933731079102
			]
		},
		{
			"extras":{
				"HG":{}
			},
			"mesh":5,
			"name":"Sphere.001",
			"scale":[
				0.0925225168466568,
				0.05617907643318176,
				0.0925225168466568
			],
			"translation":[
				-0.8335557579994202,
				0.911687970161438,
				-2.7369043827056885
			]
		},
		{
			"extras":{
				"HG":{}
			},
			"mesh":6,
			"name":"Sphere.002",
			"scale":[
				0.0925225168466568,
				0.05617907643318176,
				0.0925225168466568
			],
			"translation":[
				-0.8335557579994202,
				0.9764938950538635,
				-3.255760431289673
			]
		},
		{
			"extras":{
				"HG":{}
			},
			"mesh":7,
			"name":"Sphere.003",
			"scale":[
				0.0925225168466568,
				0.05617907643318176,
				0.0925225168466568
			],
			"translation":[
				-1.229372262954712,
				0.911687970161438,
				-3.3668227195739746
			]
		},
		{
			"extras":{
				"HG":{}
			},
			"mesh":8,
			"name":"Sphere.004",
			"scale":[
				0.0925225168466568,
				0.05617907643318176,
				0.0925225168466568
			],
			"translation":[
				-1.229372262954712,
				0.911687970161438,
				-2.8495283126831055
			]
		},
		{
			"extras":{
				"HG":{}
			},
			"mesh":9,
			"name":"Sphere.005",
			"scale":[
				0.09308016300201416,
				0.056517668068408966,
				0.09308016300201416
			],
			"translation":[
				-1.229372262954712,
				0.911687970161438,
				-3.94524884223938
			]
		},
		{
			"extras":{
				"HG":{}
			},
			"mesh":10,
			"name":"Sphere.006",
			"scale":[
				0.0925225168466568,
				0.05617907643318176,
				0.0925225168466568
			],
			"translation":[
				-1.229372262954712,
				0.957205593585968,
				-4.4154462814331055
			]
		},
		{
			"extras":{
				"HG":{}
			},
			"mesh":11,
			"name":"Sphere.007",
			"scale":[
				0.07719351351261139,
				0.046871401369571686,
				0.07719351351261139
			],
			"translation":[
				-0.8379232883453369,
				0.911687970161438,
				-4.5681304931640625
			]
		},
		{
			"extras":{
				"HG":{}
			},
			"mesh":12,
			"name":"Sphere.008",
			"scale":[
				0.06468797475099564,
				0.0455784872174263,
				0.06468797475099564
			],
			"translation":[
				-0.8297183513641357,
				0.911687970161438,
				-3.927694797515869
			]
		},
		{
			"extras":{
				"HG":{}
			},
			"mesh":13,
			"name":"Sphere.009",
			"scale":[
				0.0925225168466568,
				0.05617907643318176,
				0.0925225168466568
			],
			"translation":[
				-1.6374738216400146,
				0.911687970161438,
				-4.462543487548828
			]
		},
		{
			"extras":{
				"HG":{}
			},
			"mesh":14,
			"name":"Sphere.010",
			"scale":[
				0.0925225168466568,
				0.05617907643318176,
				0.0925225168466568
			],
			"translation":[
				-1.6374738216400146,
				0.9537829160690308,
				-3.94524884223938
			]
		},
		{
			"extras":{
				"HG":{}
			},
			"mesh":15,
			"name":"Sphere.011",
			"scale":[
				0.0614478699862957,
				0.03731074929237366,
				0.0614478699862957
			],
			"translation":[
				-1.6374738216400146,
				0.911687970161438,
				-2.680079460144043
			]
		},
		{
			"extras":{
				"HG":{}
			},
			"mesh":16,
			"name":"Sphere.012",
			"scale":[
				0.07570803165435791,
				0.04596942663192749,
				0.07570803165435791
			],
			"translation":[
				-1.5675393342971802,
				0.911687970161438,
				-3.3668227195739746
			]
		},
		{
			"extras":{
				"HG":{}
			},
			"mesh":17,
			"name":"Cylinder.001",
			"scale":[
				0.03966693580150604,
				0.03966693580150604,
				0.03966693580150604
			],
			"translation":[
				-0.8337266445159912,
				0.9477578997612,
				-3.2562716007232666
			]
		},
		{
			"extras":{
				"HG":{}
			},
			"mesh":18,
			"name":"Cylinder.002",
			"scale":[
				0.03966693580150604,
				0.03966693580150604,
				0.03966693580150604
			],
			"translation":[
				-1.2260714769363403,
				0.9448198676109314,
				-4.4200358390808105
			]
		},
		{
			"extras":{
				"HG":{}
			},
			"mesh":19,
			"name":"Cylinder.003",
			"scale":[
				0.03966693580150604,
				0.03966693580150604,
				0.03966693580150604
			],
			"translation":[
				-1.6350947618484497,
				0.9389872550964355,
				-3.9435389041900635
			]
		},
		{
			"extras":{
				"HG":{}
			},
			"mesh":20,
			"name":"Plane",
			"scale":[
				0.7479833364486694,
				1,
				1.213710069656372
			],
			"translation":[
				-1.214698076248169,
				0.9095358848571777,
				-3.6838912963867188
			]
		},
		{
			"extras":{
				"HG":{},
				"als":{},
				"trail":{
					"target_object":{}
				}
			},
			"mesh":21,
			"name":"Cube.001",
			"scale":[
				3.81034779548645,
				0.16444766521453857,
				0.4256685674190521
			],
			"translation":[
				1.6537482738494873,
				0.21734561026096344,
				0.8366666436195374
			]
		},
		{
			"extras":{
				"HG":{}
			},
			"mesh":22,
			"name":"Sphere.018",
			"rotation":[
				0,
				0.31843724846839905,
				0,
				0.9479440450668335
			],
			"scale":[
				0.1120000034570694,
				0.1120000034570694,
				0.1120000034570694
			],
			"translation":[
				5.097300052642822,
				1.271960735321045,
				0.7495099902153015
			]
		},
		{
			"extras":{
				"HG":{}
			},
			"mesh":23,
			"name":"Sphere.019",
			"rotation":[
				0,
				0.31843724846839905,
				0,
				0.9479440450668335
			],
			"scale":[
				0.1120000034570694,
				0.1120000034570694,
				0.1120000034570694
			],
			"translation":[
				4.827300071716309,
				1.271960735321045,
				0.7495099902153015
			]
		},
		{
			"extras":{
				"HG":{}
			},
			"mesh":24,
			"name":"Sphere.020",
			"rotation":[
				0,
				0.31843724846839905,
				0,
				0.9479440450668335
			],
			"scale":[
				0.1120000034570694,
				0.1120000034570694,
				0.1120000034570694
			],
			"translation":[
				4.557300090789795,
				1.271960735321045,
				0.7495099902153015
			]
		},
		{
			"extras":{
				"HG":{}
			},
			"mesh":25,
			"name":"Sphere.021",
			"rotation":[
				0,
				0.31843724846839905,
				0,
				0.9479440450668335
			],
			"scale":[
				0.1120000034570694,
				0.1120000034570694,
				0.1120000034570694
			],
			"translation":[
				4.287300109863281,
				1.271960735321045,
				0.7495099902153015
			]
		},
		{
			"extras":{
				"HG":{}
			},
			"mesh":26,
			"name":"Sphere.022",
			"rotation":[
				0,
				0.31843724846839905,
				0,
				0.9479440450668335
			],
			"scale":[
				0.1120000034570694,
				0.1120000034570694,
				0.1120000034570694
			],
			"translation":[
				4.017300128936768,
				1.271960735321045,
				0.7495099902153015
			]
		},
		{
			"extras":{
				"HG":{}
			},
			"mesh":27,
			"name":"Sphere.023",
			"rotation":[
				0,
				0.31843724846839905,
				0,
				0.9479440450668335
			],
			"scale":[
				0.1120000034570694,
				0.1120000034570694,
				0.1120000034570694
			],
			"translation":[
				5.097300052642822,
				0.9709418416023254,
				0.7495099902153015
			]
		},
		{
			"extras":{
				"HG":{}
			},
			"mesh":28,
			"name":"Sphere.024",
			"rotation":[
				0,
				0.31843724846839905,
				0,
				0.9479440450668335
			],
			"scale":[
				0.1120000034570694,
				0.1120000034570694,
				0.1120000034570694
			],
			"translation":[
				4.827300071716309,
				0.9709418416023254,
				0.7495099902153015
			]
		},
		{
			"extras":{
				"HG":{}
			},
			"mesh":29,
			"name":"Sphere.025",
			"rotation":[
				0,
				0.31843724846839905,
				0,
				0.9479440450668335
			],
			"scale":[
				0.1120000034570694,
				0.1120000034570694,
				0.1120000034570694
			],
			"translation":[
				4.557300090789795,
				0.9709418416023254,
				0.7495099902153015
			]
		},
		{
			"extras":{
				"HG":{}
			},
			"mesh":30,
			"name":"Sphere.026",
			"rotation":[
				0,
				0.31843724846839905,
				0,
				0.9479440450668335
			],
			"scale":[
				0.1120000034570694,
				0.1120000034570694,
				0.1120000034570694
			],
			"translation":[
				4.287300109863281,
				0.9709418416023254,
				0.7495099902153015
			]
		},
		{
			"extras":{
				"HG":{}
			},
			"mesh":31,
			"name":"Sphere.027",
			"rotation":[
				0,
				0.31843724846839905,
				0,
				0.9479440450668335
			],
			"scale":[
				0.1120000034570694,
				0.1120000034570694,
				0.1120000034570694
			],
			"translation":[
				4.017300128936768,
				0.9709418416023254,
				0.7495099902153015
			]
		},
		{
			"extras":{
				"HG":{}
			},
			"mesh":32,
			"name":"Sphere.028",
			"rotation":[
				0,
				0.31843724846839905,
				0,
				0.9479440450668335
			],
			"scale":[
				0.1120000034570694,
				0.1120000034570694,
				0.1120000034570694
			],
			"translation":[
				5.097300052642822,
				0.6944281458854675,
				0.7495099902153015
			]
		},
		{
			"extras":{
				"HG":{}
			},
			"mesh":33,
			"name":"Sphere.029",
			"rotation":[
				0,
				0.31843724846839905,
				0,
				0.9479440450668335
			],
			"scale":[
				0.1120000034570694,
				0.1120000034570694,
				0.1120000034570694
			],
			"translation":[
				4.827300071716309,
				0.6944281458854675,
				0.7495099902153015
			]
		},
		{
			"extras":{
				"HG":{}
			},
			"mesh":34,
			"name":"Sphere.030",
			"rotation":[
				0,
				0.31843724846839905,
				0,
				0.9479440450668335
			],
			"scale":[
				0.1120000034570694,
				0.1120000034570694,
				0.1120000034570694
			],
			"translation":[
				4.557300090789795,
				0.6944281458854675,
				0.7495099902153015
			]
		},
		{
			"extras":{
				"HG":{}
			},
			"mesh":35,
			"name":"Sphere.031",
			"rotation":[
				0,
				0.31843724846839905,
				0,
				0.9479440450668335
			],
			"scale":[
				0.1120000034570694,
				0.1120000034570694,
				0.1120000034570694
			],
			"translation":[
				4.287300109863281,
				0.6944281458854675,
				0.7495099902153015
			]
		},
		{
			"extras":{
				"HG":{}
			},
			"mesh":36,
			"name":"Sphere.032",
			"rotation":[
				0,
				0.31843724846839905,
				0,
				0.9479440450668335
			],
			"scale":[
				0.1120000034570694,
				0.1120000034570694,
				0.1120000034570694
			],
			"translation":[
				4.017300128936768,
				0.6944281458854675,
				0.7495099902153015
			]
		},
		{
			"extras":{
				"HG":{}
			},
			"mesh":37,
			"name":"Sphere.033",
			"rotation":[
				0,
				0.31843724846839905,
				0,
				0.9479440450668335
			],
			"scale":[
				0.1120000034570694,
				0.1120000034570694,
				0.1120000034570694
			],
			"translation":[
				5.097300052642822,
				0.4268290400505066,
				0.7495099902153015
			]
		},
		{
			"extras":{
				"HG":{}
			},
			"mesh":38,
			"name":"Sphere.034",
			"rotation":[
				0,
				0.31843724846839905,
				0,
				0.9479440450668335
			],
			"scale":[
				0.1120000034570694,
				0.1120000034570694,
				0.1120000034570694
			],
			"translation":[
				4.827300071716309,
				0.4268290400505066,
				0.7495099902153015
			]
		},
		{
			"extras":{
				"HG":{}
			},
			"mesh":39,
			"name":"Sphere.035",
			"rotation":[
				0,
				0.31843724846839905,
				0,
				0.9479440450668335
			],
			"scale":[
				0.1120000034570694,
				0.1120000034570694,
				0.1120000034570694
			],
			"translation":[
				4.557300090789795,
				0.4268290400505066,
				0.7495099902153015
			]
		},
		{
			"extras":{
				"HG":{}
			},
			"mesh":40,
			"name":"Sphere.036",
			"rotation":[
				0,
				0.31843724846839905,
				0,
				0.9479440450668335
			],
			"scale":[
				0.1120000034570694,
				0.1120000034570694,
				0.1120000034570694
			],
			"translation":[
				4.287300109863281,
				0.4268290400505066,
				0.7495099902153015
			]
		},
		{
			"extras":{
				"HG":{}
			},
			"mesh":41,
			"name":"Sphere.037",
			"rotation":[
				0,
				0.31843724846839905,
				0,
				0.9479440450668335
			],
			"scale":[
				0.1120000034570694,
				0.1120000034570694,
				0.1120000034570694
			],
			"translation":[
				4.017300128936768,
				0.4268290400505066,
				0.7495099902153015
			]
		}
	],
	"cameras":[
		{
			"name":"Camera.001",
			"perspective":{
				"aspectRatio":0.5625,
				"yfov":0.6911112070083618,
				"zfar":1000,
				"znear":0.10000000149011612
			},
			"type":"perspective"
		},
		{
			"name":"Camera.002",
			"perspective":{
				"aspectRatio":0.5625,
				"yfov":0.6911112070083618,
				"zfar":1000,
				"znear":0.10000000149011612
			},
			"type":"perspective"
		}
	],
	"materials":[
		{
			"doubleSided":true,
			"name":"Material.020",
			"pbrMetallicRoughness":{
				"metallicFactor":0,
				"roughnessFactor":0.5
			}
		},
		{
			"doubleSided":true,
			"extensions":{
				"KHR_materials_specular":{
					"specularFactor":0.4324324131011963
				},
				"KHR_materials_ior":{
					"ior":1.4500000476837158
				}
			},
			"name":"Red Wood",
			"pbrMetallicRoughness":{
				"metallicFactor":0
			}
		},
		{
			"doubleSided":true,
			"name":"Material.004",
			"pbrMetallicRoughness":{
				"baseColorFactor":[
					0.4909791350364685,
					0.5743763446807861,
					0.8004156351089478,
					1
				],
				"metallicFactor":0.06363636255264282,
				"roughnessFactor":0.2454545497894287
			}
		},
		{
			"doubleSided":true,
			"name":"Material.005",
			"pbrMetallicRoughness":{
				"baseColorFactor":[
					0.4909791350364685,
					0.5743763446807861,
					0.8004156351089478,
					1
				],
				"metallicFactor":0.06363636255264282,
				"roughnessFactor":0.2454545497894287
			}
		},
		{
			"doubleSided":true,
			"extensions":{
				"KHR_materials_clearcoat":{
					"clearcoatFactor":0.25
				}
			},
			"name":"Beu Metal",
			"pbrMetallicRoughness":{
				"metallicFactor":0.027272716164588928
			}
		},
		{
			"doubleSided":true,
			"name":"Material.021",
			"pbrMetallicRoughness":{
				"baseColorFactor":[
					0.17791661620140076,
					0.015306396409869194,
					0.41088470816612244,
					1
				],
				"metallicFactor":0.20909090340137482,
				"roughnessFactor":0.9954545497894287
			}
		},
		{
			"doubleSided":true,
			"name":"Material.006",
			"pbrMetallicRoughness":{
				"baseColorFactor":[
					0.8007664680480957,
					0.006825689226388931,
					0.0096532441675663,
					1
				],
				"metallicFactor":0,
				"roughnessFactor":0.5
			}
		},
		{
			"doubleSided":true,
			"name":"Material.007",
			"pbrMetallicRoughness":{
				"baseColorFactor":[
					0,
					0.010901529341936111,
					0.8016514778137207,
					1
				],
				"metallicFactor":0,
				"roughnessFactor":0.5
			}
		},
		{
			"doubleSided":true,
			"name":"Material.008",
			"pbrMetallicRoughness":{
				"baseColorFactor":[
					0.058504797518253326,
					0.8016670942306519,
					0.13623861968517303,
					1
				],
				"metallicFactor":0,
				"roughnessFactor":0.5
			}
		},
		{
			"doubleSided":true,
			"name":"Material.009",
			"pbrMetallicRoughness":{
				"baseColorFactor":[
					0.02917822077870369,
					0.6983935236930847,
					0.8010088205337524,
					1
				],
				"metallicFactor":0,
				"roughnessFactor":0.5
			}
		},
		{
			"doubleSided":true,
			"name":"Material.010",
			"pbrMetallicRoughness":{
				"baseColorFactor":[
					1,
					0.20600059628486633,
					0,
					1
				],
				"metallicFactor":0,
				"roughnessFactor":0.5
			}
		},
		{
			"doubleSided":true,
			"name":"Material.011",
			"pbrMetallicRoughness":{
				"baseColorFactor":[
					0.24056127667427063,
					0.8019428253173828,
					0.683688759803772,
					1
				],
				"metallicFactor":0,
				"roughnessFactor":0.5
			}
		},
		{
			"doubleSided":true,
			"name":"Material.012",
			"pbrMetallicRoughness":{
				"baseColorFactor":[
					1,
					0,
					0.33632469177246094,
					1
				],
				"metallicFactor":0,
				"roughnessFactor":0.5
			}
		},
		{
			"doubleSided":true,
			"name":"Material.013",
			"pbrMetallicRoughness":{
				"baseColorFactor":[
					0.8007664680480957,
					0.006825689226388931,
					0.0096532441675663,
					1
				],
				"metallicFactor":0,
				"roughnessFactor":0.5
			}
		},
		{
			"doubleSided":true,
			"name":"Material.014",
			"pbrMetallicRoughness":{
				"baseColorFactor":[
					0.5464180111885071,
					0.05714590847492218,
					0.8014436364173889,
					1
				],
				"metallicFactor":0,
				"roughnessFactor":0.5
			}
		},
		{
			"doubleSided":true,
			"name":"Material.015",
			"pbrMetallicRoughness":{
				"baseColorFactor":[
					0.8007664680480957,
					0.006825689226388931,
					0.0096532441675663,
					1
				],
				"metallicFactor":0,
				"roughnessFactor":0.5
			}
		},
		{
			"doubleSided":true,
			"name":"Material.016",
			"pbrMetallicRoughness":{
				"baseColorFactor":[
					0.8023713827133179,
					0,
					0.26065459847450256,
					1
				],
				"metallicFactor":0,
				"roughnessFactor":0.5
			}
		},
		{
			"doubleSided":true,
			"name":"Material.017",
			"pbrMetallicRoughness":{
				"baseColorFactor":[
					0.8016670942306519,
					0.5776331424713135,
					0,
					1
				],
				"metallicFactor":0,
				"roughnessFactor":0.5
			}
		},
		{
			"doubleSided":true,
			"name":"Material.018",
			"pbrMetallicRoughness":{
				"baseColorFactor":[
					0.04404379054903984,
					0.04404379054903984,
					0.04404379054903984,
					1
				],
				"metallicFactor":0,
				"roughnessFactor":0.5
			}
		},
		{
			"doubleSided":true,
			"name":"Material.019",
			"pbrMetallicRoughness":{
				"baseColorFactor":[
					0.16363608837127686,
					0.19021771848201752,
					0.2617861330509186,
					1
				],
				"metallicFactor":0.06363636255264282,
				"roughnessFactor":0.2454545497894287
			}
		},
		{
			"doubleSided":true,
			"emissiveFactor":[
				0.19999998807907104,
				0.03422930632654975,
				0.18349491456181255
			],
			"name":"Material.003",
			"pbrMetallicRoughness":{
				"baseColorFactor":[
					0.800000011920929,
					0.800000011920929,
					0.800000011920929,
					1
				],
				"metallicFactor":0,
				"roughnessFactor":0.5
			}
		}
	],
	"meshes":[
		{
			"name":"Plane.002",
			"primitives":[
				{
					"attributes":{
						"POSITION":0,
						"NORMAL":1,
						"TEXCOORD_0":2
					},
					"indices":3,
					"material":0
				}
			]
		},
		{
			"name":"Cube.003",
			"primitives":[
				{
					"attributes":{
						"POSITION":4,
						"NORMAL":5,
						"TEXCOORD_0":6
					},
					"indices":7,
					"material":1
				}
			]
		},
		{
			"name":"Cylinder",
			"primitives":[
				{
					"attributes":{
						"POSITION":8,
						"NORMAL":9,
						"TEXCOORD_0":10
					},
					"indices":11,
					"material":2
				}
			]
		},
		{
			"name":"Sphere.020",
			"primitives":[
				{
					"attributes":{
						"POSITION":12,
						"NORMAL":13,
						"TEXCOORD_0":14
					},
					"indices":15,
					"material":3
				}
			]
		},
		{
			"name":"Cube.025",
			"primitives":[
				{
					"attributes":{
						"POSITION":16,
						"NORMAL":17,
						"TEXCOORD_0":18
					},
					"indices":19,
					"material":4
				},
				{
					"attributes":{
						"POSITION":20,
						"NORMAL":21,
						"TEXCOORD_0":22
					},
					"indices":23,
					"material":5
				}
			]
		},
		{
			"name":"Sphere",
			"primitives":[
				{
					"attributes":{
						"POSITION":24,
						"NORMAL":25,
						"TEXCOORD_0":26
					},
					"indices":27,
					"material":6
				}
			]
		},
		{
			"name":"Sphere.001",
			"primitives":[
				{
					"attributes":{
						"POSITION":28,
						"NORMAL":29,
						"TEXCOORD_0":30
					},
					"indices":27,
					"material":7
				}
			]
		},
		{
			"name":"Sphere.002",
			"primitives":[
				{
					"attributes":{
						"POSITION":31,
						"NORMAL":32,
						"TEXCOORD_0":33
					},
					"indices":27,
					"material":8
				}
			]
		},
		{
			"name":"Sphere.003",
			"primitives":[
				{
					"attributes":{
						"POSITION":34,
						"NORMAL":35,
						"TEXCOORD_0":36
					},
					"indices":27,
					"material":9
				}
			]
		},
		{
			"name":"Sphere.004",
			"primitives":[
				{
					"attributes":{
						"POSITION":37,
						"NORMAL":38,
						"TEXCOORD_0":39
					},
					"indices":27,
					"material":10
				}
			]
		},
		{
			"name":"Sphere.005",
			"primitives":[
				{
					"attributes":{
						"POSITION":40,
						"NORMAL":41,
						"TEXCOORD_0":42
					},
					"indices":27,
					"material":11
				}
			]
		},
		{
			"name":"Sphere.006",
			"primitives":[
				{
					"attributes":{
						"POSITION":43,
						"NORMAL":44,
						"TEXCOORD_0":45
					},
					"indices":27,
					"material":12
				}
			]
		},
		{
			"name":"Sphere.007",
			"primitives":[
				{
					"attributes":{
						"POSITION":46,
						"NORMAL":47,
						"TEXCOORD_0":48
					},
					"indices":27,
					"material":13
				}
			]
		},
		{
			"name":"Sphere.008",
			"primitives":[
				{
					"attributes":{
						"POSITION":49,
						"NORMAL":50,
						"TEXCOORD_0":51
					},
					"indices":27,
					"material":14
				}
			]
		},
		{
			"name":"Sphere.009",
			"primitives":[
				{
					"attributes":{
						"POSITION":52,
						"NORMAL":53,
						"TEXCOORD_0":54
					},
					"indices":27,
					"material":15
				}
			]
		},
		{
			"name":"Sphere.010",
			"primitives":[
				{
					"attributes":{
						"POSITION":55,
						"NORMAL":56,
						"TEXCOORD_0":57
					},
					"indices":27,
					"material":16
				}
			]
		},
		{
			"name":"Sphere.011",
			"primitives":[
				{
					"attributes":{
						"POSITION":58,
						"NORMAL":59,
						"TEXCOORD_0":60
					},
					"indices":27,
					"material":17
				}
			]
		},
		{
			"name":"Cylinder.001",
			"primitives":[
				{
					"attributes":{
						"POSITION":61,
						"NORMAL":62,
						"TEXCOORD_0":63
					},
					"indices":64,
					"material":18
				}
			]
		},
		{
			"name":"Cylinder.002",
			"primitives":[
				{
					"attributes":{
						"POSITION":65,
						"NORMAL":66,
						"TEXCOORD_0":67
					},
					"indices":64,
					"material":18
				}
			]
		},
		{
			"name":"Cylinder.003",
			"primitives":[
				{
					"attributes":{
						"POSITION":68,
						"NORMAL":69,
						"TEXCOORD_0":70
					},
					"indices":64,
					"material":18
				}
			]
		},
		{
			"name":"Plane.001",
			"primitives":[
				{
					"attributes":{
						"POSITION":71,
						"NORMAL":72,
						"TEXCOORD_0":73
					},
					"indices":74,
					"material":19
				}
			]
		},
		{
			"name":"Cube.001",
			"primitives":[
				{
					"attributes":{
						"POSITION":75,
						"NORMAL":76,
						"TEXCOORD_0":77
					},
					"indices":3,
					"material":20
				}
			]
		},
		{
			"name":"Sphere.022",
			"primitives":[
				{
					"attributes":{
						"POSITION":78,
						"NORMAL":79,
						"TEXCOORD_0":80
					},
					"indices":81
				}
			]
		},
		{
			"name":"Sphere.023",
			"primitives":[
				{
					"attributes":{
						"POSITION":82,
						"NORMAL":83,
						"TEXCOORD_0":84
					},
					"indices":81
				}
			]
		},
		{
			"name":"Sphere.024",
			"primitives":[
				{
					"attributes":{
						"POSITION":85,
						"NORMAL":86,
						"TEXCOORD_0":87
					},
					"indices":81
				}
			]
		},
		{
			"name":"Sphere.025",
			"primitives":[
				{
					"attributes":{
						"POSITION":88,
						"NORMAL":89,
						"TEXCOORD_0":90
					},
					"indices":81
				}
			]
		},
		{
			"name":"Sphere.026",
			"primitives":[
				{
					"attributes":{
						"POSITION":91,
						"NORMAL":92,
						"TEXCOORD_0":93
					},
					"indices":81
				}
			]
		},
		{
			"name":"Sphere.027",
			"primitives":[
				{
					"attributes":{
						"POSITION":94,
						"NORMAL":95,
						"TEXCOORD_0":96
					},
					"indices":81
				}
			]
		},
		{
			"name":"Sphere.028",
			"primitives":[
				{
					"attributes":{
						"POSITION":97,
						"NORMAL":98,
						"TEXCOORD_0":99
					},
					"indices":81
				}
			]
		},
		{
			"name":"Sphere.029",
			"primitives":[
				{
					"attributes":{
						"POSITION":100,
						"NORMAL":101,
						"TEXCOORD_0":102
					},
					"indices":81
				}
			]
		},
		{
			"name":"Sphere.030",
			"primitives":[
				{
					"attributes":{
						"POSITION":103,
						"NORMAL":104,
						"TEXCOORD_0":105
					},
					"indices":81
				}
			]
		},
		{
			"name":"Sphere.031",
			"primitives":[
				{
					"attributes":{
						"POSITION":106,
						"NORMAL":107,
						"TEXCOORD_0":108
					},
					"indices":81
				}
			]
		},
		{
			"name":"Sphere.032",
			"primitives":[
				{
					"attributes":{
						"POSITION":109,
						"NORMAL":110,
						"TEXCOORD_0":111
					},
					"indices":81
				}
			]
		},
		{
			"name":"Sphere.033",
			"primitives":[
				{
					"attributes":{
						"POSITION":112,
						"NORMAL":113,
						"TEXCOORD_0":114
					},
					"indices":81
				}
			]
		},
		{
			"name":"Sphere.034",
			"primitives":[
				{
					"attributes":{
						"POSITION":115,
						"NORMAL":116,
						"TEXCOORD_0":117
					},
					"indices":81
				}
			]
		},
		{
			"name":"Sphere.035",
			"primitives":[
				{
					"attributes":{
						"POSITION":118,
						"NORMAL":119,
						"TEXCOORD_0":120
					},
					"indices":81
				}
			]
		},
		{
			"name":"Sphere.036",
			"primitives":[
				{
					"attributes":{
						"POSITION":121,
						"NORMAL":122,
						"TEXCOORD_0":123
					},
					"indices":81
				}
			]
		},
		{
			"name":"Sphere.037",
			"primitives":[
				{
					"attributes":{
						"POSITION":124,
						"NORMAL":125,
						"TEXCOORD_0":126
					},
					"indices":81
				}
			]
		},
		{
			"name":"Sphere.038",
			"primitives":[
				{
					"attributes":{
						"POSITION":127,
						"NORMAL":128,
						"TEXCOORD_0":129
					},
					"indices":81
				}
			]
		},
		{
			"name":"Sphere.039",
			"primitives":[
				{
					"attributes":{
						"POSITION":130,
						"NORMAL":131,
						"TEXCOORD_0":132
					},
					"indices":81
				}
			]
		},
		{
			"name":"Sphere.040",
			"primitives":[
				{
					"attributes":{
						"POSITION":133,
						"NORMAL":134,
						"TEXCOORD_0":135
					},
					"indices":81
				}
			]
		},
		{
			"name":"Sphere.041",
			"primitives":[
				{
					"attributes":{
						"POSITION":136,
						"NORMAL":137,
						"TEXCOORD_0":138
					},
					"indices":81
				}
			]
		}
	],
	"accessors":[
		{
			"bufferView":0,
			"componentType":5126,
			"count":4,
			"max":[
				1,
				0,
				1
			],
			"min":[
				-1,
				0,
				-1
			],
			"type":"VEC3"
		},
		{
			"bufferView":1,
			"componentType":5126,
			"count":4,
			"type":"VEC3"
		},
		{
			"bufferView":2,
			"componentType":5126,
			"count":4,
			"type":"VEC2"
		},
		{
			"bufferView":3,
			"componentType":5123,
			"count":6,
			"type":"SCALAR"
		},
		{
			"bufferView":4,
			"componentType":5126,
			"count":1849,
			"max":[
				1.0540934801101685,
				9.827178001403809,
				1.1858664751052856
			],
			"min":[
				-1.0503329038619995,
				-2.6938648223876953,
				-1.3906880617141724
			],
			"type":"VEC3"
		},
		{
			"bufferView":5,
			"componentType":5126,
			"count":1849,
			"type":"VEC3"
		},
		{
			"bufferView":6,
			"componentType":5126,
			"count":1849,
			"type":"VEC2"
		},
		{
			"bufferView":7,
			"componentType":5123,
			"count":5856,
			"type":"SCALAR"
		},
		{
			"bufferView":8,
			"componentType":5126,
			"count":9795,
			"max":[
				1,
				1.3238849639892578,
				1.2699470520019531
			],
			"min":[
				-1,
				-11.993568420410156,
				-1.266782522201538
			],
			"type":"VEC3"
		},
		{
			"bufferView":9,
			"componentType":5126,
			"count":9795,
			"type":"VEC3"
		},
		{
			"bufferView":10,
			"componentType":5126,
			"count":9795,
			"type":"VEC2"
		},
		{
			"bufferView":11,
			"componentType":5123,
			"count":55836,
			"type":"SCALAR"
		},
		{
			"bufferView":12,
			"componentType":5126,
			"count":691,
			"max":[
				0.9999997019767761,
				1.2465780973434448,
				0.9999992847442627
			],
			"min":[
				-0.9999990463256836,
				-1,
				-1
			],
			"type":"VEC3"
		},
		{
			"bufferView":13,
			"componentType":5126,
			"count":691,
			"type":"VEC3"
		},
		{
			"bufferView":14,
			"componentType":5126,
			"count":691,
			"type":"VEC2"
		},
		{
			"bufferView":15,
			"componentType":5123,
			"count":3648,
			"type":"SCALAR"
		},
		{
			"bufferView":16,
			"componentType":5126,
			"count":344,
			"max":[
				1,
				1,
				1
			],
			"min":[
				-1,
				-1,
				-1
			],
			"type":"VEC3"
		},
		{
			"bufferView":17,
			"componentType":5126,
			"count":344,
			"type":"VEC3"
		},
		{
			"bufferView":18,
			"componentType":5126,
			"count":344,
			"type":"VEC2"
		},
		{
			"bufferView":19,
			"componentType":5123,
			"count":1704,
			"type":"SCALAR"
		},
		{
			"bufferView":20,
			"componentType":5126,
			"count":81,
			"max":[
				1,
				-1,
				1
			],
			"min":[
				-1,
				-1,
				-1
			],
			"type":"VEC3"
		},
		{
			"bufferView":21,
			"componentType":5126,
			"count":81,
			"type":"VEC3"
		},
		{
			"bufferView":22,
			"componentType":5126,
			"count":81,
			"type":"VEC2"
		},
		{
			"bufferView":23,
			"componentType":5123,
			"count":384,
			"type":"SCALAR"
		},
		{
			"bufferView":24,
			"componentType":5126,
			"count":296,
			"max":[
				0.9999997019767761,
				1,
				0.9999993443489075
			],
			"min":[
				-0.9999990463256836,
				0,
				-1
			],
			"type":"VEC3"
		},
		{
			"bufferView":25,
			"componentType":5126,
			"count":296,
			"type":"VEC3"
		},
		{
			"bufferView":26,
			"componentType":5126,
			"count":296,
			"type":"VEC2"
		},
		{
			"bufferView":27,
			"componentType":5123,
			"count":1440,
			"type":"SCALAR"
		},
		{
			"bufferView":28,
			"componentType":5126,
			"count":296,
			"max":[
				0.9999997019767761,
				1,
				0.9999993443489075
			],
			"min":[
				-0.9999990463256836,
				0,
				-1
			],
			"type":"VEC3"
		},
		{
			"bufferView":29,
			"componentType":5126,
			"count":296,
			"type":"VEC3"
		},
		{
			"bufferView":30,
			"componentType":5126,
			"count":296,
			"type":"VEC2"
		},
		{
			"bufferView":31,
			"componentType":5126,
			"count":296,
			"max":[
				0.9999997019767761,
				1,
				0.9999993443489075
			],
			"min":[
				-0.9999990463256836,
				0,
				-1
			],
			"type":"VEC3"
		},
		{
			"bufferView":32,
			"componentType":5126,
			"count":296,
			"type":"VEC3"
		},
		{
			"bufferView":33,
			"componentType":5126,
			"count":296,
			"type":"VEC2"
		},
		{
			"bufferView":34,
			"componentType":5126,
			"count":296,
			"max":[
				0.9999997019767761,
				1,
				0.9999993443489075
			],
			"min":[
				-0.9999990463256836,
				0,
				-1
			],
			"type":"VEC3"
		},
		{
			"bufferView":35,
			"componentType":5126,
			"count":296,
			"type":"VEC3"
		},
		{
			"bufferView":36,
			"componentType":5126,
			"count":296,
			"type":"VEC2"
		},
		{
			"bufferView":37,
			"componentType":5126,
			"count":296,
			"max":[
				0.9999997019767761,
				1,
				0.9999993443489075
			],
			"min":[
				-0.9999990463256836,
				0,
				-1
			],
			"type":"VEC3"
		},
		{
			"bufferView":38,
			"componentType":5126,
			"count":296,
			"type":"VEC3"
		},
		{
			"bufferView":39,
			"componentType":5126,
			"count":296,
			"type":"VEC2"
		},
		{
			"bufferView":40,
			"componentType":5126,
			"count":296,
			"max":[
				0.9999997019767761,
				1,
				0.9999993443489075
			],
			"min":[
				-0.9999990463256836,
				0,
				-1
			],
			"type":"VEC3"
		},
		{
			"bufferView":41,
			"componentType":5126,
			"count":296,
			"type":"VEC3"
		},
		{
			"bufferView":42,
			"componentType":5126,
			"count":296,
			"type":"VEC2"
		},
		{
			"bufferView":43,
			"componentType":5126,
			"count":296,
			"max":[
				0.9999997019767761,
				1,
				0.9999993443489075
			],
			"min":[
				-0.9999990463256836,
				0,
				-1
			],
			"type":"VEC3"
		},
		{
			"bufferView":44,
			"componentType":5126,
			"count":296,
			"type":"VEC3"
		},
		{
			"bufferView":45,
			"componentType":5126,
			"count":296,
			"type":"VEC2"
		},
		{
			"bufferView":46,
			"componentType":5126,
			"count":296,
			"max":[
				0.9999997019767761,
				1,
				0.9999993443489075
			],
			"min":[
				-0.9999990463256836,
				0,
				-1
			],
			"type":"VEC3"
		},
		{
			"bufferView":47,
			"componentType":5126,
			"count":296,
			"type":"VEC3"
		},
		{
			"bufferView":48,
			"componentType":5126,
			"count":296,
			"type":"VEC2"
		},
		{
			"bufferView":49,
			"componentType":5126,
			"count":296,
			"max":[
				0.9999997019767761,
				1,
				0.9999993443489075
			],
			"min":[
				-0.9999990463256836,
				0,
				-1
			],
			"type":"VEC3"
		},
		{
			"bufferView":50,
			"componentType":5126,
			"count":296,
			"type":"VEC3"
		},
		{
			"bufferView":51,
			"componentType":5126,
			"count":296,
			"type":"VEC2"
		},
		{
			"bufferView":52,
			"componentType":5126,
			"count":296,
			"max":[
				0.9999997019767761,
				1,
				0.9999993443489075
			],
			"min":[
				-0.9999990463256836,
				0,
				-1
			],
			"type":"VEC3"
		},
		{
			"bufferView":53,
			"componentType":5126,
			"count":296,
			"type":"VEC3"
		},
		{
			"bufferView":54,
			"componentType":5126,
			"count":296,
			"type":"VEC2"
		},
		{
			"bufferView":55,
			"componentType":5126,
			"count":296,
			"max":[
				0.9999997019767761,
				1,
				0.9999993443489075
			],
			"min":[
				-0.9999990463256836,
				0,
				-1
			],
			"type":"VEC3"
		},
		{
			"bufferView":56,
			"componentType":5126,
			"count":296,
			"type":"VEC3"
		},
		{
			"bufferView":57,
			"componentType":5126,
			"count":296,
			"type":"VEC2"
		},
		{
			"bufferView":58,
			"componentType":5126,
			"count":296,
			"max":[
				0.9999997019767761,
				1,
				0.9999993443489075
			],
			"min":[
				-0.9999990463256836,
				0,
				-1
			],
			"type":"VEC3"
		},
		{
			"bufferView":59,
			"componentType":5126,
			"count":296,
			"type":"VEC3"
		},
		{
			"bufferView":60,
			"componentType":5126,
			"count":296,
			"type":"VEC2"
		},
		{
			"bufferView":61,
			"componentType":5126,
			"count":192,
			"max":[
				1,
				1,
				1
			],
			"min":[
				-1,
				-1,
				-1
			],
			"type":"VEC3"
		},
		{
			"bufferView":62,
			"componentType":5126,
			"count":192,
			"type":"VEC3"
		},
		{
			"bufferView":63,
			"componentType":5126,
			"count":192,
			"type":"VEC2"
		},
		{
			"bufferView":64,
			"componentType":5123,
			"count":372,
			"type":"SCALAR"
		},
		{
			"bufferView":65,
			"componentType":5126,
			"count":192,
			"max":[
				1,
				1,
				1
			],
			"min":[
				-1,
				-1,
				-1
			],
			"type":"VEC3"
		},
		{
			"bufferView":66,
			"componentType":5126,
			"count":192,
			"type":"VEC3"
		},
		{
			"bufferView":67,
			"componentType":5126,
			"count":192,
			"type":"VEC2"
		},
		{
			"bufferView":68,
			"componentType":5126,
			"count":192,
			"max":[
				1,
				1,
				1
			],
			"min":[
				-1,
				-1,
				-1
			],
			"type":"VEC3"
		},
		{
			"bufferView":69,
			"componentType":5126,
			"count":192,
			"type":"VEC3"
		},
		{
			"bufferView":70,
			"componentType":5126,
			"count":192,
			"type":"VEC2"
		},
		{
			"bufferView":71,
			"componentType":5126,
			"count":289,
			"max":[
				1,
				0,
				1.179273009300232
			],
			"min":[
				-1,
				0,
				-1.1207778453826904
			],
			"type":"VEC3"
		},
		{
			"bufferView":72,
			"componentType":5126,
			"count":289,
			"type":"VEC3"
		},
		{
			"bufferView":73,
			"componentType":5126,
			"count":289,
			"type":"VEC2"
		},
		{
			"bufferView":74,
			"componentType":5123,
			"count":1536,
			"type":"SCALAR"
		},
		{
			"bufferView":75,
			"componentType":5126,
			"count":4,
			"max":[
				1.0008070468902588,
				9.216670989990234,
				1.0552912950515747
			],
			"min":[
				-0.9576681852340698,
				-2.945251941680908,
				1.0552910566329956
			],
			"type":"VEC3"
		},
		{
			"bufferView":76,
			"componentType":5126,
			"count":4,
			"type":"VEC3"
		},
		{
			"bufferView":77,
			"componentType":5126,
			"count":4,
			"type":"VEC2"
		},
		{
			"bufferView":78,
			"componentType":5126,
			"count":1984,
			"max":[
				0.9999997019767761,
				1,
				0.9999993443489075
			],
			"min":[
				-0.9999990463256836,
				-1,
				-1
			],
			"type":"VEC3"
		},
		{
			"bufferView":79,
			"componentType":5126,
			"count":1984,
			"type":"VEC3"
		},
		{
			"bufferView":80,
			"componentType":5126,
			"count":1984,
			"type":"VEC2"
		},
		{
			"bufferView":81,
			"componentType":5123,
			"count":2880,
			"type":"SCALAR"
		},
		{
			"bufferView":82,
			"componentType":5126,
			"count":1984,
			"max":[
				0.9999997019767761,
				1,
				0.9999993443489075
			],
			"min":[
				-0.9999990463256836,
				-1,
				-1
			],
			"type":"VEC3"
		},
		{
			"bufferView":83,
			"componentType":5126,
			"count":1984,
			"type":"VEC3"
		},
		{
			"bufferView":84,
			"componentType":5126,
			"count":1984,
			"type":"VEC2"
		},
		{
			"bufferView":85,
			"componentType":5126,
			"count":1984,
			"max":[
				0.9999997019767761,
				1,
				0.9999993443489075
			],
			"min":[
				-0.9999990463256836,
				-1,
				-1
			],
			"type":"VEC3"
		},
		{
			"bufferView":86,
			"componentType":5126,
			"count":1984,
			"type":"VEC3"
		},
		{
			"bufferView":87,
			"componentType":5126,
			"count":1984,
			"type":"VEC2"
		},
		{
			"bufferView":88,
			"componentType":5126,
			"count":1984,
			"max":[
				0.9999997019767761,
				1,
				0.9999993443489075
			],
			"min":[
				-0.9999990463256836,
				-1,
				-1
			],
			"type":"VEC3"
		},
		{
			"bufferView":89,
			"componentType":5126,
			"count":1984,
			"type":"VEC3"
		},
		{
			"bufferView":90,
			"componentType":5126,
			"count":1984,
			"type":"VEC2"
		},
		{
			"bufferView":91,
			"componentType":5126,
			"count":1984,
			"max":[
				0.9999997019767761,
				1,
				0.9999993443489075
			],
			"min":[
				-0.9999990463256836,
				-1,
				-1
			],
			"type":"VEC3"
		},
		{
			"bufferView":92,
			"componentType":5126,
			"count":1984,
			"type":"VEC3"
		},
		{
			"bufferView":93,
			"componentType":5126,
			"count":1984,
			"type":"VEC2"
		},
		{
			"bufferView":94,
			"componentType":5126,
			"count":1984,
			"max":[
				0.9999997019767761,
				1,
				0.9999993443489075
			],
			"min":[
				-0.9999990463256836,
				-1,
				-1
			],
			"type":"VEC3"
		},
		{
			"bufferView":95,
			"componentType":5126,
			"count":1984,
			"type":"VEC3"
		},
		{
			"bufferView":96,
			"componentType":5126,
			"count":1984,
			"type":"VEC2"
		},
		{
			"bufferView":97,
			"componentType":5126,
			"count":1984,
			"max":[
				0.9999997019767761,
				1,
				0.9999993443489075
			],
			"min":[
				-0.9999990463256836,
				-1,
				-1
			],
			"type":"VEC3"
		},
		{
			"bufferView":98,
			"componentType":5126,
			"count":1984,
			"type":"VEC3"
		},
		{
			"bufferView":99,
			"componentType":5126,
			"count":1984,
			"type":"VEC2"
		},
		{
			"bufferView":100,
			"componentType":5126,
			"count":1984,
			"max":[
				0.9999997019767761,
				1,
				0.9999993443489075
			],
			"min":[
				-0.9999990463256836,
				-1,
				-1
			],
			"type":"VEC3"
		},
		{
			"bufferView":101,
			"componentType":5126,
			"count":1984,
			"type":"VEC3"
		},
		{
			"bufferView":102,
			"componentType":5126,
			"count":1984,
			"type":"VEC2"
		},
		{
			"bufferView":103,
			"componentType":5126,
			"count":1984,
			"max":[
				0.9999997019767761,
				1,
				0.9999993443489075
			],
			"min":[
				-0.9999990463256836,
				-1,
				-1
			],
			"type":"VEC3"
		},
		{
			"bufferView":104,
			"componentType":5126,
			"count":1984,
			"type":"VEC3"
		},
		{
			"bufferView":105,
			"componentType":5126,
			"count":1984,
			"type":"VEC2"
		},
		{
			"bufferView":106,
			"componentType":5126,
			"count":1984,
			"max":[
				0.9999997019767761,
				1,
				0.9999993443489075
			],
			"min":[
				-0.9999990463256836,
				-1,
				-1
			],
			"type":"VEC3"
		},
		{
			"bufferView":107,
			"componentType":5126,
			"count":1984,
			"type":"VEC3"
		},
		{
			"bufferView":108,
			"componentType":5126,
			"count":1984,
			"type":"VEC2"
		},
		{
			"bufferView":109,
			"componentType":5126,
			"count":1984,
			"max":[
				0.9999997019767761,
				1,
				0.9999993443489075
			],
			"min":[
				-0.9999990463256836,
				-1,
				-1
			],
			"type":"VEC3"
		},
		{
			"bufferView":110,
			"componentType":5126,
			"count":1984,
			"type":"VEC3"
		},
		{
			"bufferView":111,
			"componentType":5126,
			"count":1984,
			"type":"VEC2"
		},
		{
			"bufferView":112,
			"componentType":5126,
			"count":1984,
			"max":[
				0.9999997019767761,
				1,
				0.9999993443489075
			],
			"min":[
				-0.9999990463256836,
				-1,
				-1
			],
			"type":"VEC3"
		},
		{
			"bufferView":113,
			"componentType":5126,
			"count":1984,
			"type":"VEC3"
		},
		{
			"bufferView":114,
			"componentType":5126,
			"count":1984,
			"type":"VEC2"
		},
		{
			"bufferView":115,
			"componentType":5126,
			"count":1984,
			"max":[
				0.9999997019767761,
				1,
				0.9999993443489075
			],
			"min":[
				-0.9999990463256836,
				-1,
				-1
			],
			"type":"VEC3"
		},
		{
			"bufferView":116,
			"componentType":5126,
			"count":1984,
			"type":"VEC3"
		},
		{
			"bufferView":117,
			"componentType":5126,
			"count":1984,
			"type":"VEC2"
		},
		{
			"bufferView":118,
			"componentType":5126,
			"count":1984,
			"max":[
				0.9999997019767761,
				1,
				0.9999993443489075
			],
			"min":[
				-0.9999990463256836,
				-1,
				-1
			],
			"type":"VEC3"
		},
		{
			"bufferView":119,
			"componentType":5126,
			"count":1984,
			"type":"VEC3"
		},
		{
			"bufferView":120,
			"componentType":5126,
			"count":1984,
			"type":"VEC2"
		},
		{
			"bufferView":121,
			"componentType":5126,
			"count":1984,
			"max":[
				0.9999997019767761,
				1,
				0.9999993443489075
			],
			"min":[
				-0.9999990463256836,
				-1,
				-1
			],
			"type":"VEC3"
		},
		{
			"bufferView":122,
			"componentType":5126,
			"count":1984,
			"type":"VEC3"
		},
		{
			"bufferView":123,
			"componentType":5126,
			"count":1984,
			"type":"VEC2"
		},
		{
			"bufferView":124,
			"componentType":5126,
			"count":1984,
			"max":[
				0.9999997019767761,
				1,
				0.9999993443489075
			],
			"min":[
				-0.9999990463256836,
				-1,
				-1
			],
			"type":"VEC3"
		},
		{
			"bufferView":125,
			"componentType":5126,
			"count":1984,
			"type":"VEC3"
		},
		{
			"bufferView":126,
			"componentType":5126,
			"count":1984,
			"type":"VEC2"
		},
		{
			"bufferView":127,
			"componentType":5126,
			"count":1984,
			"max":[
				0.9999997019767761,
				1,
				0.9999993443489075
			],
			"min":[
				-0.9999990463256836,
				-1,
				-1
			],
			"type":"VEC3"
		},
		{
			"bufferView":128,
			"componentType":5126,
			"count":1984,
			"type":"VEC3"
		},
		{
			"bufferView":129,
			"componentType":5126,
			"count":1984,
			"type":"VEC2"
		},
		{
			"bufferView":130,
			"componentType":5126,
			"count":1984,
			"max":[
				0.9999997019767761,
				1,
				0.9999993443489075
			],
			"min":[
				-0.9999990463256836,
				-1,
				-1
			],
			"type":"VEC3"
		},
		{
			"bufferView":131,
			"componentType":5126,
			"count":1984,
			"type":"VEC3"
		},
		{
			"bufferView":132,
			"componentType":5126,
			"count":1984,
			"type":"VEC2"
		},
		{
			"bufferView":133,
			"componentType":5126,
			"count":1984,
			"max":[
				0.9999997019767761,
				1,
				0.9999993443489075
			],
			"min":[
				-0.9999990463256836,
				-1,
				-1
			],
			"type":"VEC3"
		},
		{
			"bufferView":134,
			"componentType":5126,
			"count":1984,
			"type":"VEC3"
		},
		{
			"bufferView":135,
			"componentType":5126,
			"count":1984,
			"type":"VEC2"
		},
		{
			"bufferView":136,
			"componentType":5126,
			"count":1984,
			"max":[
				0.9999997019767761,
				1,
				0.9999993443489075
			],
			"min":[
				-0.9999990463256836,
				-1,
				-1
			],
			"type":"VEC3"
		},
		{
			"bufferView":137,
			"componentType":5126,
			"count":1984,
			"type":"VEC3"
		},
		{
			"bufferView":138,
			"componentType":5126,
			"count":1984,
			"type":"VEC2"
		}
	],
	"bufferViews":[
		{
			"buffer":0,
			"byteLength":48,
			"byteOffset":0,
			"target":34962
		},
		{
			"buffer":0,
			"byteLength":48,
			"byteOffset":48,
			"target":34962
		},
		{
			"buffer":0,
			"byteLength":32,
			"byteOffset":96,
			"target":34962
		},
		{
			"buffer":0,
			"byteLength":12,
			"byteOffset":128,
			"target":34963
		},
		{
			"buffer":0,
			"byteLength":22188,
			"byteOffset":140,
			"target":34962
		},
		{
			"buffer":0,
			"byteLength":22188,
			"byteOffset":22328,
			"target":34962
		},
		{
			"buffer":0,
			"byteLength":14792,
			"byteOffset":44516,
			"target":34962
		},
		{
			"buffer":0,
			"byteLength":11712,
			"byteOffset":59308,
			"target":34963
		},
		{
			"buffer":0,
			"byteLength":117540,
			"byteOffset":71020,
			"target":34962
		},
		{
			"buffer":0,
			"byteLength":117540,
			"byteOffset":188560,
			"target":34962
		},
		{
			"buffer":0,
			"byteLength":78360,
			"byteOffset":306100,
			"target":34962
		},
		{
			"buffer":0,
			"byteLength":111672,
			"byteOffset":384460,
			"target":34963
		},
		{
			"buffer":0,
			"byteLength":8292,
			"byteOffset":496132,
			"target":34962
		},
		{
			"buffer":0,
			"byteLength":8292,
			"byteOffset":504424,
			"target":34962
		},
		{
			"buffer":0,
			"byteLength":5528,
			"byteOffset":512716,
			"target":34962
		},
		{
			"buffer":0,
			"byteLength":7296,
			"byteOffset":518244,
			"target":34963
		},
		{
			"buffer":0,
			"byteLength":4128,
			"byteOffset":525540,
			"target":34962
		},
		{
			"buffer":0,
			"byteLength":4128,
			"byteOffset":529668,
			"target":34962
		},
		{
			"buffer":0,
			"byteLength":2752,
			"byteOffset":533796,
			"target":34962
		},
		{
			"buffer":0,
			"byteLength":3408,
			"byteOffset":536548,
			"target":34963
		},
		{
			"buffer":0,
			"byteLength":972,
			"byteOffset":539956,
			"target":34962
		},
		{
			"buffer":0,
			"byteLength":972,
			"byteOffset":540928,
			"target":34962
		},
		{
			"buffer":0,
			"byteLength":648,
			"byteOffset":541900,
			"target":34962
		},
		{
			"buffer":0,
			"byteLength":768,
			"byteOffset":542548,
			"target":34963
		},
		{
			"buffer":0,
			"byteLength":3552,
			"byteOffset":543316,
			"target":34962
		},
		{
			"buffer":0,
			"byteLength":3552,
			"byteOffset":546868,
			"target":34962
		},
		{
			"buffer":0,
			"byteLength":2368,
			"byteOffset":550420,
			"target":34962
		},
		{
			"buffer":0,
			"byteLength":2880,
			"byteOffset":552788,
			"target":34963
		},
		{
			"buffer":0,
			"byteLength":3552,
			"byteOffset":555668,
			"target":34962
		},
		{
			"buffer":0,
			"byteLength":3552,
			"byteOffset":559220,
			"target":34962
		},
		{
			"buffer":0,
			"byteLength":2368,
			"byteOffset":562772,
			"target":34962
		},
		{
			"buffer":0,
			"byteLength":3552,
			"byteOffset":565140,
			"target":34962
		},
		{
			"buffer":0,
			"byteLength":3552,
			"byteOffset":568692,
			"target":34962
		},
		{
			"buffer":0,
			"byteLength":2368,
			"byteOffset":572244,
			"target":34962
		},
		{
			"buffer":0,
			"byteLength":3552,
			"byteOffset":574612,
			"target":34962
		},
		{
			"buffer":0,
			"byteLength":3552,
			"byteOffset":578164,
			"target":34962
		},
		{
			"buffer":0,
			"byteLength":2368,
			"byteOffset":581716,
			"target":34962
		},
		{
			"buffer":0,
			"byteLength":3552,
			"byteOffset":584084,
			"target":34962
		},
		{
			"buffer":0,
			"byteLength":3552,
			"byteOffset":587636,
			"target":34962
		},
		{
			"buffer":0,
			"byteLength":2368,
			"byteOffset":591188,
			"target":34962
		},
		{
			"buffer":0,
			"byteLength":3552,
			"byteOffset":593556,
			"target":34962
		},
		{
			"buffer":0,
			"byteLength":3552,
			"byteOffset":597108,
			"target":34962
		},
		{
			"buffer":0,
			"byteLength":2368,
			"byteOffset":600660,
			"target":34962
		},
		{
			"buffer":0,
			"byteLength":3552,
			"byteOffset":603028,
			"target":34962
		},
		{
			"buffer":0,
			"byteLength":3552,
			"byteOffset":606580,
			"target":34962
		},
		{
			"buffer":0,
			"byteLength":2368,
			"byteOffset":610132,
			"target":34962
		},
		{
			"buffer":0,
			"byteLength":3552,
			"byteOffset":612500,
			"target":34962
		},
		{
			"buffer":0,
			"byteLength":3552,
			"byteOffset":616052,
			"target":34962
		},
		{
			"buffer":0,
			"byteLength":2368,
			"byteOffset":619604,
			"target":34962
		},
		{
			"buffer":0,
			"byteLength":3552,
			"byteOffset":621972,
			"target":34962
		},
		{
			"buffer":0,
			"byteLength":3552,
			"byteOffset":625524,
			"target":34962
		},
		{
			"buffer":0,
			"byteLength":2368,
			"byteOffset":629076,
			"target":34962
		},
		{
			"buffer":0,
			"byteLength":3552,
			"byteOffset":631444,
			"target":34962
		},
		{
			"buffer":0,
			"byteLength":3552,
			"byteOffset":634996,
			"target":34962
		},
		{
			"buffer":0,
			"byteLength":2368,
			"byteOffset":638548,
			"target":34962
		},
		{
			"buffer":0,
			"byteLength":3552,
			"byteOffset":640916,
			"target":34962
		},
		{
			"buffer":0,
			"byteLength":3552,
			"byteOffset":644468,
			"target":34962
		},
		{
			"buffer":0,
			"byteLength":2368,
			"byteOffset":648020,
			"target":34962
		},
		{
			"buffer":0,
			"byteLength":3552,
			"byteOffset":650388,
			"target":34962
		},
		{
			"buffer":0,
			"byteLength":3552,
			"byteOffset":653940,
			"target":34962
		},
		{
			"buffer":0,
			"byteLength":2368,
			"byteOffset":657492,
			"target":34962
		},
		{
			"buffer":0,
			"byteLength":2304,
			"byteOffset":659860,
			"target":34962
		},
		{
			"buffer":0,
			"byteLength":2304,
			"byteOffset":662164,
			"target":34962
		},
		{
			"buffer":0,
			"byteLength":1536,
			"byteOffset":664468,
			"target":34962
		},
		{
			"buffer":0,
			"byteLength":744,
			"byteOffset":666004,
			"target":34963
		},
		{
			"buffer":0,
			"byteLength":2304,
			"byteOffset":666748,
			"target":34962
		},
		{
			"buffer":0,
			"byteLength":2304,
			"byteOffset":669052,
			"target":34962
		},
		{
			"buffer":0,
			"byteLength":1536,
			"byteOffset":671356,
			"target":34962
		},
		{
			"buffer":0,
			"byteLength":2304,
			"byteOffset":672892,
			"target":34962
		},
		{
			"buffer":0,
			"byteLength":2304,
			"byteOffset":675196,
			"target":34962
		},
		{
			"buffer":0,
			"byteLength":1536,
			"byteOffset":677500,
			"target":34962
		},
		{
			"buffer":0,
			"byteLength":3468,
			"byteOffset":679036,
			"target":34962
		},
		{
			"buffer":0,
			"byteLength":3468,
			"byteOffset":682504,
			"target":34962
		},
		{
			"buffer":0,
			"byteLength":2312,
			"byteOffset":685972,
			"target":34962
		},
		{
			"buffer":0,
			"byteLength":3072,
			"byteOffset":688284,
			"target":34963
		},
		{
			"buffer":0,
			"byteLength":48,
			"byteOffset":691356,
			"target":34962
		},
		{
			"buffer":0,
			"byteLength":48,
			"byteOffset":691404,
			"target":34962
		},
		{
			"buffer":0,
			"byteLength":32,
			"byteOffset":691452,
			"target":34962
		},
		{
			"buffer":0,
			"byteLength":23808,
			"byteOffset":691484,
			"target":34962
		},
		{
			"buffer":0,
			"byteLength":23808,
			"byteOffset":715292,
			"target":34962
		},
		{
			"buffer":0,
			"byteLength":15872,
			"byteOffset":739100,
			"target":34962
		},
		{
			"buffer":0,
			"byteLength":5760,
			"byteOffset":754972,
			"target":34963
		},
		{
			"buffer":0,
			"byteLength":23808,
			"byteOffset":760732,
			"target":34962
		},
		{
			"buffer":0,
			"byteLength":23808,
			"byteOffset":784540,
			"target":34962
		},
		{
			"buffer":0,
			"byteLength":15872,
			"byteOffset":808348,
			"target":34962
		},
		{
			"buffer":0,
			"byteLength":23808,
			"byteOffset":824220,
			"target":34962
		},
		{
			"buffer":0,
			"byteLength":23808,
			"byteOffset":848028,
			"target":34962
		},
		{
			"buffer":0,
			"byteLength":15872,
			"byteOffset":871836,
			"target":34962
		},
		{
			"buffer":0,
			"byteLength":23808,
			"byteOffset":887708,
			"target":34962
		},
		{
			"buffer":0,
			"byteLength":23808,
			"byteOffset":911516,
			"target":34962
		},
		{
			"buffer":0,
			"byteLength":15872,
			"byteOffset":935324,
			"target":34962
		},
		{
			"buffer":0,
			"byteLength":23808,
			"byteOffset":951196,
			"target":34962
		},
		{
			"buffer":0,
			"byteLength":23808,
			"byteOffset":975004,
			"target":34962
		},
		{
			"buffer":0,
			"byteLength":15872,
			"byteOffset":998812,
			"target":34962
		},
		{
			"buffer":0,
			"byteLength":23808,
			"byteOffset":1014684,
			"target":34962
		},
		{
			"buffer":0,
			"byteLength":23808,
			"byteOffset":1038492,
			"target":34962
		},
		{
			"buffer":0,
			"byteLength":15872,
			"byteOffset":1062300,
			"target":34962
		},
		{
			"buffer":0,
			"byteLength":23808,
			"byteOffset":1078172,
			"target":34962
		},
		{
			"buffer":0,
			"byteLength":23808,
			"byteOffset":1101980,
			"target":34962
		},
		{
			"buffer":0,
			"byteLength":15872,
			"byteOffset":1125788,
			"target":34962
		},
		{
			"buffer":0,
			"byteLength":23808,
			"byteOffset":1141660,
			"target":34962
		},
		{
			"buffer":0,
			"byteLength":23808,
			"byteOffset":1165468,
			"target":34962
		},
		{
			"buffer":0,
			"byteLength":15872,
			"byteOffset":1189276,
			"target":34962
		},
		{
			"buffer":0,
			"byteLength":23808,
			"byteOffset":1205148,
			"target":34962
		},
		{
			"buffer":0,
			"byteLength":23808,
			"byteOffset":1228956,
			"target":34962
		},
		{
			"buffer":0,
			"byteLength":15872,
			"byteOffset":1252764,
			"target":34962
		},
		{
			"buffer":0,
			"byteLength":23808,
			"byteOffset":1268636,
			"target":34962
		},
		{
			"buffer":0,
			"byteLength":23808,
			"byteOffset":1292444,
			"target":34962
		},
		{
			"buffer":0,
			"byteLength":15872,
			"byteOffset":1316252,
			"target":34962
		},
		{
			"buffer":0,
			"byteLength":23808,
			"byteOffset":1332124,
			"target":34962
		},
		{
			"buffer":0,
			"byteLength":23808,
			"byteOffset":1355932,
			"target":34962
		},
		{
			"buffer":0,
			"byteLength":15872,
			"byteOffset":1379740,
			"target":34962
		},
		{
			"buffer":0,
			"byteLength":23808,
			"byteOffset":1395612,
			"target":34962
		},
		{
			"buffer":0,
			"byteLength":23808,
			"byteOffset":1419420,
			"target":34962
		},
		{
			"buffer":0,
			"byteLength":15872,
			"byteOffset":1443228,
			"target":34962
		},
		{
			"buffer":0,
			"byteLength":23808,
			"byteOffset":1459100,
			"target":34962
		},
		{
			"buffer":0,
			"byteLength":23808,
			"byteOffset":1482908,
			"target":34962
		},
		{
			"buffer":0,
			"byteLength":15872,
			"byteOffset":1506716,
			"target":34962
		},
		{
			"buffer":0,
			"byteLength":23808,
			"byteOffset":1522588,
			"target":34962
		},
		{
			"buffer":0,
			"byteLength":23808,
			"byteOffset":1546396,
			"target":34962
		},
		{
			"buffer":0,
			"byteLength":15872,
			"byteOffset":1570204,
			"target":34962
		},
		{
			"buffer":0,
			"byteLength":23808,
			"byteOffset":1586076,
			"target":34962
		},
		{
			"buffer":0,
			"byteLength":23808,
			"byteOffset":1609884,
			"target":34962
		},
		{
			"buffer":0,
			"byteLength":15872,
			"byteOffset":1633692,
			"target":34962
		},
		{
			"buffer":0,
			"byteLength":23808,
			"byteOffset":1649564,
			"target":34962
		},
		{
			"buffer":0,
			"byteLength":23808,
			"byteOffset":1673372,
			"target":34962
		},
		{
			"buffer":0,
			"byteLength":15872,
			"byteOffset":1697180,
			"target":34962
		},
		{
			"buffer":0,
			"byteLength":23808,
			"byteOffset":1713052,
			"target":34962
		},
		{
			"buffer":0,
			"byteLength":23808,
			"byteOffset":1736860,
			"target":34962
		},
		{
			"buffer":0,
			"byteLength":15872,
			"byteOffset":1760668,
			"target":34962
		},
		{
			"buffer":0,
			"byteLength":23808,
			"byteOffset":1776540,
			"target":34962
		},
		{
			"buffer":0,
			"byteLength":23808,
			"byteOffset":1800348,
			"target":34962
		},
		{
			"buffer":0,
			"byteLength":15872,
			"byteOffset":1824156,
			"target":34962
		},
		{
			"buffer":0,
			"byteLength":23808,
			"byteOffset":1840028,
			"target":34962
		},
		{
			"buffer":0,
			"byteLength":23808,
			"byteOffset":1863836,
			"target":34962
		},
		{
			"buffer":0,
			"byteLength":15872,
			"byteOffset":1887644,
			"target":34962
		},
		{
			"buffer":0,
			"byteLength":23808,
			"byteOffset":1903516,
			"target":34962
		},
		{
			"buffer":0,
			"byteLength":23808,
			"byteOffset":1927324,
			"target":34962
		},
		{
			"buffer":0,
			"byteLength":15872,
			"byteOffset":1951132,
			"target":34962
		}
	],
	"buffers":[
		{
			"byteLength":1967004,
			"uri":"temp7.bin"
		}
	]
}
